<?xml version="1.0" standalone="no"?>
<!DOCTYPE svg PUBLIC "-//W3C//DTD SVG 20010904//EN"
 "http://www.w3.org/TR/2001/REC-SVG-20010904/DTD/svg10.dtd">
<svg version="1.0" xmlns="http://www.w3.org/2000/svg"
 width="877.000000pt" height="781.000000pt" viewBox="0 0 877.000000 781.000000"
 preserveAspectRatio="xMidYMid meet">

<g transform="translate(0.000000,781.000000) scale(0.100000,-0.100000)"
fill="#000000" stroke="none">
<path d="M0 3905 l0 -3905 4385 0 4385 0 0 3905 0 3905 -4385 0 -4385 0 0
-3905z m4500 3540 c-9 -11 -9 -15 -1 -15 6 0 14 7 18 15 4 13 19 15 82 10 129
-10 332 -37 329 -44 -72 -165 -71 -165 -202 -151 -50 5 -121 12 -158 15 -63 6
-67 8 -57 26 10 20 5 39 -12 39 -5 0 -21 -14 -36 -31 l-28 -31 -165 3 c-99 1
-187 -3 -220 -10 -30 -6 -71 -11 -90 -9 -20 1 -40 -1 -45 -4 -6 -3 -30 -9 -55
-12 -107 -17 -306 -59 -401 -86 -120 -35 -112 -33 -103 -19 4 7 1 10 -7 7 -8
-3 -13 -10 -12 -15 1 -6 -16 -16 -38 -22 -34 -10 -44 -10 -57 2 -38 33 -111
60 -96 36 4 -6 -1 -9 -12 -8 -11 2 -25 0 -31 -4 -18 -11 -16 -37 1 -37 8 0 17
-6 20 -12 3 -7 3 -3 1 9 -3 12 0 25 6 29 8 5 9 3 4 -6 -6 -10 -4 -12 9 -7 14
6 17 3 12 -9 -5 -13 -2 -15 11 -9 41 17 63 18 57 2 -3 -8 -13 -17 -22 -20 -9
-3 -26 -8 -36 -13 -14 -5 -17 -4 -12 4 4 7 2 12 -3 12 -6 0 -11 -6 -11 -13 0
-6 -28 -23 -62 -36 -77 -30 -319 -149 -413 -203 -38 -23 -116 -72 -172 -110
-57 -37 -105 -68 -108 -68 -2 0 0 12 5 26 13 33 13 94 0 94 -5 0 -10 -7 -10
-16 0 -20 -40 -114 -49 -114 -3 0 -15 7 -25 15 -16 12 -17 17 -5 31 13 15 11
17 -19 12 -30 -4 -32 -3 -32 27 0 41 12 56 89 110 44 30 71 43 85 39 12 -2 42
2 68 10 54 16 208 115 208 134 0 19 -22 14 -64 -14 -21 -15 -36 -20 -34 -13 2
7 50 37 106 67 77 41 102 50 102 38 0 -18 25 -22 36 -5 3 6 1 15 -6 19 -9 6 0
12 28 19 23 7 44 16 47 22 8 12 78 43 213 94 85 31 105 36 112 24 7 -11 14 -9
34 10 15 14 64 35 123 52 109 32 117 33 108 19 -3 -5 -2 -10 3 -10 6 0 13 7
16 16 3 9 13 14 21 11 7 -3 27 0 42 8 36 17 270 58 290 50 9 -3 21 -1 27 3 13
11 126 25 126 17 0 -3 -7 -19 -15 -35 -21 -40 -4 -38 33 4 16 19 41 36 53 39
13 2 111 5 218 5 170 2 192 0 181 -13z m680 -81 c41 -9 82 -22 90 -30 9 -8 25
-11 39 -7 21 5 23 3 19 -15 -5 -18 -2 -22 18 -22 28 0 29 -5 8 -55 -19 -47 -8
-59 36 -37 32 15 35 21 34 59 -1 38 1 40 20 33 24 -8 33 -45 16 -65 -8 -10 -8
-14 2 -18 23 -8 -5 -40 -43 -49 -19 -5 -42 -13 -52 -18 -12 -8 -43 -3 -110 16
-50 15 -95 31 -98 37 -4 5 -11 7 -17 3 -9 -5 -200 31 -211 40 -2 1 11 28 29
59 l32 57 19 -29 c19 -28 19 -28 -1 -31 -27 -5 -25 -16 5 -30 37 -17 45 -15
45 12 0 14 5 28 11 32 8 5 6 10 -5 16 -31 17 -11 74 24 63 8 -2 49 -12 90 -21z
m501 -163 c208 -86 459 -216 459 -238 0 -6 8 -11 18 -10 22 1 72 -32 72 -48 0
-7 14 -15 31 -19 17 -3 54 -22 83 -43 90 -64 236 -176 236 -180 0 -2 -4 -1
-10 2 -5 3 -10 2 -10 -4 0 -5 -3 -16 -6 -24 -6 -17 45 -30 63 -16 14 12 25 -3
18 -23 -4 -9 3 -14 22 -16 18 -1 47 -21 85 -59 62 -61 68 -72 41 -74 -17 -1
-17 -2 0 -6 9 -2 15 -9 12 -14 -4 -5 1 -9 9 -9 20 0 20 -10 1 -38 -15 -20 -14
-21 0 -16 9 4 25 -2 35 -11 22 -20 22 -19 37 9 9 16 20 7 93 -75 45 -52 109
-128 141 -171 l58 -76 42 10 c33 9 43 8 51 -3 8 -11 9 -11 5 2 -4 12 19 21
119 46 98 24 124 27 124 16 0 -7 -11 -18 -25 -23 -30 -11 -34 -25 -5 -17 11 3
20 1 20 -4 0 -5 7 -9 16 -9 8 0 12 5 9 10 -3 6 -1 10 5 10 6 0 10 -10 9 -22
-2 -15 7 -33 25 -51 15 -15 26 -32 24 -38 -2 -6 -109 -37 -238 -70 -232 -60
-234 -60 -271 -44 -34 16 -39 16 -60 1 -13 -9 -18 -16 -11 -16 6 0 12 -6 12
-13 0 -16 -341 -103 -390 -99 -26 2 -31 0 -20 -8 8 -5 11 -10 6 -10 -9 0 -458
-114 -1349 -341 -443 -113 -471 -119 -510 -107 -51 14 -305 16 -398 2 l-66
-10 12 30 13 31 527 134 c608 155 567 129 360 230 -185 92 -348 144 -550 176
-55 9 -101 18 -103 20 -2 2 5 21 15 42 11 21 28 55 39 77 10 21 24 41 31 43
56 22 583 -136 583 -174 0 -10 6 -13 15 -9 21 8 132 -49 267 -136 l109 -71 57
13 c31 7 65 14 74 15 10 1 20 4 23 7 7 6 -81 76 -155 124 -25 16 -47 31 -50
34 -3 3 -17 11 -32 19 -35 18 -33 19 18 13 36 -3 41 -7 36 -24 -4 -18 -1 -20
26 -16 26 4 45 -6 122 -64 104 -79 81 -76 265 -26 69 19 111 26 113 20 3 -11
32 -5 42 8 14 19 48 19 65 0 21 -23 41 -26 48 -6 4 9 -3 16 -16 20 -13 3 -18
9 -12 14 6 5 123 37 260 72 138 35 258 66 268 69 15 6 6 20 -55 91 -40 46 -90
99 -110 118 -43 39 -47 52 -16 52 19 0 88 -54 88 -69 0 -4 36 -44 79 -90 l80
-85 75 18 c42 10 76 19 76 21 0 2 -29 39 -65 82 -36 43 -61 79 -55 81 5 2 10
15 10 28 0 14 5 34 10 45 7 13 7 19 0 19 -5 0 -10 -7 -10 -15 0 -11 -11 -15
-37 -15 -35 0 -49 11 -160 119 -68 65 -159 147 -203 182 -44 35 -75 66 -69 68
6 2 16 -2 22 -8 16 -16 23 -14 24 10 1 12 9 29 17 38 18 20 22 46 5 35 -6 -3
-15 -1 -19 6 -12 19 -32 1 -26 -24 4 -16 -1 -24 -21 -33 -14 -7 -29 -10 -34
-7 -53 33 -219 154 -210 154 6 0 11 6 11 14 0 9 -17 16 -47 21 -49 7 -92 28
-106 52 -5 7 -12 11 -18 8 -5 -4 -21 2 -37 13 -15 11 -37 22 -49 26 -12 4 -32
21 -44 38 -15 20 -24 26 -29 18 -5 -7 -16 -9 -30 -5 -23 7 -19 20 7 20 9 0 18
7 21 15 3 8 1 12 -3 8 -5 -4 -15 -2 -23 4 -13 11 -50 17 -120 19 -13 1 -49 11
-80 24 -48 19 -58 27 -60 51 -3 20 3 33 20 46 l23 18 -33 29 -34 29 29 15 c15
8 28 15 29 16 0 1 43 -16 95 -38z m-271 -76 c0 -17 -2 -18 -25 -9 -13 5 -14 8
-3 15 19 13 28 11 28 -6z m-1085 -5 c4 -7 13 -6 26 1 18 9 286 5 296 -5 2 -2
-3 -11 -13 -20 -13 -14 -29 -16 -88 -10 -95 8 -446 11 -446 3 0 -4 -33 -10
-72 -13 -300 -29 -668 -127 -950 -252 -57 -26 -118 -51 -135 -58 -18 -6 -33
-14 -33 -17 0 -3 -12 -4 -26 -1 -20 4 -25 1 -22 -9 3 -9 -33 -36 -106 -79 -61
-36 -132 -80 -159 -98 -26 -18 -47 -28 -47 -21 0 6 -19 -8 -42 -32 -24 -24
-81 -73 -128 -109 -47 -36 -161 -140 -255 -232 -93 -92 -172 -168 -175 -168
-3 0 -11 -12 -17 -27 -19 -42 -101 -123 -124 -123 -18 0 -16 5 17 48 237 297
489 527 794 724 150 97 219 136 201 115 -8 -10 -9 -17 -3 -17 6 0 13 8 16 18
8 24 93 66 99 49 2 -7 16 0 36 20 33 32 243 121 416 177 165 53 486 123 506
110 5 -3 24 0 42 6 69 23 380 39 392 20z m462 -19 c6 -1 9 -10 6 -21 -5 -17
-11 -19 -47 -14 -82 11 -89 13 -76 29 9 11 26 14 59 11 25 -2 51 -4 58 -5z
m73 -21 c0 -13 -11 -13 -30 0 -12 8 -11 10 8 10 12 0 22 -4 22 -10z m189 -26
c514 -115 1034 -383 1425 -734 39 -35 60 -60 49 -56 -12 4 -31 9 -43 11 -11 2
-43 24 -71 49 -27 25 -93 78 -145 118 -53 40 -91 74 -85 76 6 2 11 8 11 14 0
7 -5 6 -14 -1 -11 -9 -29 -2 -88 37 -41 26 -105 66 -141 87 -46 27 -67 45 -67
58 0 15 -3 17 -14 8 -10 -9 -48 6 -167 63 -155 75 -347 149 -471 182 -38 10
-68 24 -68 30 0 16 -25 25 -38 12 -14 -14 -143 16 -154 36 -5 9 -14 16 -19 16
-6 0 -7 -4 -4 -10 3 -5 -3 -10 -14 -10 -14 0 -21 6 -21 20 0 25 -1 25 139 -6z
m-3027 -516 c-16 -71 -17 -117 -3 -131 15 -15 98 30 129 69 15 19 34 34 42 34
8 0 -21 -33 -64 -73 -59 -53 -91 -75 -124 -83 -53 -14 -66 2 -35 44 36 50 37
55 14 47 -26 -8 -26 -4 -1 37 11 18 20 44 20 57 0 19 24 61 35 61 1 0 -5 -28
-13 -62z m2252 -326 c-14 -13 -50 -21 -141 -30 -203 -20 -436 -76 -608 -146
-47 -19 -64 -22 -80 -13 -18 9 -19 9 -5 -8 14 -16 13 -17 -8 -11 -13 5 -22 3
-22 -3 0 -6 -33 -27 -72 -47 -198 -99 -386 -233 -554 -395 -62 -60 -117 -109
-124 -109 -6 0 -9 -4 -6 -9 10 -15 -23 -36 -36 -23 -30 30 249 289 474 441 87
57 254 147 338 181 30 12 74 31 97 41 121 54 398 122 548 134 44 4 82 9 84 11
2 2 34 4 70 4 63 0 64 -1 45 -18z m381 -1 c32 -6 36 -9 21 -16 -11 -5 -26 -3
-37 4 -15 9 -19 8 -19 -4 0 -12 -20 -13 -132 -8 -131 6 -168 13 -168 34 0 12
268 4 335 -10z m410 -96 c173 -57 286 -110 279 -130 -7 -17 -34 -21 -34 -4 0
5 -6 7 -12 3 -10 -6 -10 -4 0 8 10 13 9 17 -10 22 -13 3 -33 6 -46 6 -12 0
-89 22 -170 49 -81 28 -184 58 -229 67 -79 17 -81 18 -60 34 19 16 26 16 86 2
36 -8 125 -33 196 -57z m2839 -67 c51 -33 115 -107 147 -169 15 -30 69 -198
69 -215 0 -2 -9 -4 -20 -4 -11 0 -20 -4 -20 -9 0 -5 -15 -12 -34 -15 -19 -4
-45 -15 -58 -26 l-23 -19 43 3 c27 2 48 -2 57 -10 19 -20 28 -17 22 5 -3 14 2
20 19 24 21 4 25 -1 33 -32 5 -20 24 -90 41 -156 24 -92 29 -124 21 -137 -9
-14 -8 -18 4 -18 15 0 15 1 68 -211 30 -119 32 -139 21 -160 -23 -41 -18 -69
14 -75 27 -5 28 -9 122 -377 86 -340 94 -380 93 -462 -1 -143 -52 -257 -156
-351 -76 -68 -142 -96 -348 -149 l-186 -47 -18 -107 c-49 -302 -152 -624 -299
-934 -39 -84 -61 -119 -78 -126 -13 -5 -40 -23 -62 -40 -21 -17 -43 -31 -49
-31 -6 0 0 -11 13 -25 l23 -24 -24 -36 c-13 -19 -32 -35 -41 -35 -17 0 -111
18 -135 25 -7 2 9 39 44 96 30 51 80 141 111 202 59 118 101 160 168 173 19 3
41 16 50 28 14 20 13 22 -17 34 -24 10 -30 17 -26 33 5 18 2 20 -20 14 -22 -5
-24 -3 -18 12 63 162 138 421 170 588 10 50 24 97 31 106 19 21 18 33 -4 53
-18 15 -20 15 -37 -4 -15 -17 -17 -25 -8 -40 11 -16 8 -19 -25 -25 -85 -16
-98 -27 -111 -96 -19 -102 -80 -315 -123 -434 -54 -147 -163 -383 -190 -412
-12 -13 -18 -23 -14 -23 19 0 -26 -58 -49 -62 -14 -3 -25 -4 -25 -2 0 2 14 27
31 55 121 206 260 565 319 822 12 53 20 101 18 106 -2 4 -217 -46 -478 -113
-440 -112 -475 -123 -487 -146 -6 -14 -39 -82 -73 -151 -112 -233 -280 -461
-474 -647 -81 -77 -100 -91 -115 -82 -10 5 -20 8 -23 7 -2 -1 11 11 28 26 144
125 297 300 411 470 74 111 211 372 200 383 -3 3 -21 1 -39 -4 -18 -6 -52 -16
-75 -22 -38 -9 -44 -16 -77 -81 -41 -80 -107 -192 -135 -228 -18 -24 -19 -23
-14 115 5 124 8 142 27 162 11 13 20 33 18 44 -6 32 7 68 24 68 8 0 12 5 9 10
-3 6 -19 10 -36 10 -21 0 -29 5 -29 18 0 15 22 23 118 47 64 16 125 28 134 26
9 -1 30 5 46 13 16 8 120 38 231 66 l202 51 46 -40 c55 -49 100 -66 137 -51
21 8 25 15 21 32 -12 53 39 62 71 12 13 -19 14 -27 4 -39 -8 -10 -9 -15 -2
-15 6 0 17 18 23 40 7 22 21 49 31 60 23 25 73 27 87 3 11 -21 30 -13 117 51
l61 45 18 -40 c12 -26 23 -38 33 -34 7 3 22 5 31 5 10 0 18 6 18 13 1 6 4 27
9 46 7 33 7 33 -24 27 -25 -6 -31 -4 -37 14 -4 12 -3 26 2 30 17 18 259 72
311 71 40 -1 53 2 50 11 -3 9 44 26 161 56 218 57 261 84 321 201 44 87 41
112 -60 512 -51 200 -93 376 -93 392 -1 15 -5 27 -8 27 -6 0 -40 122 -44 160
-1 8 -5 22 -8 30 -7 16 -57 215 -57 224 0 3 7 3 15 0 10 -4 15 0 15 16 0 16
-4 20 -19 15 -16 -5 -22 5 -41 76 -12 45 -20 90 -17 100 3 10 1 19 -4 21 -5 2
-27 72 -49 157 l-40 153 26 20 c14 11 23 23 20 25 -3 3 -12 -2 -21 -11 -22
-22 -28 -20 -42 9 -6 14 -8 23 -3 20 4 -3 11 2 14 11 4 10 -2 23 -16 35 -13
10 -28 23 -35 29 -7 5 -21 10 -32 10 -11 0 -36 7 -55 17 -34 16 -35 17 -20 44
17 35 44 50 72 42 24 -6 29 6 11 24 -8 8 -8 17 0 32 15 27 19 27 75 -11z
m-3340 1 c4 -3 -15 -42 -40 -86 l-47 -80 -176 -6 c-195 -6 -348 -29 -503 -75
-81 -25 -96 -27 -91 -13 4 10 -4 7 -23 -10 -16 -14 -37 -29 -48 -33 -15 -5
-17 -2 -13 16 5 21 4 20 -14 -5 -13 -16 -66 -50 -132 -83 -62 -31 -116 -60
-122 -65 -12 -12 -28 -12 -20 1 3 6 1 10 -4 10 -6 0 -11 -8 -11 -18 0 -10 -15
-26 -32 -37 -108 -62 -298 -229 -411 -360 -58 -66 -82 -84 -82 -59 0 12 -86
89 -107 96 -8 3 12 34 56 86 43 51 73 79 82 75 9 -3 12 0 9 9 -4 10 17 36 57
73 119 110 248 206 223 165 -3 -5 1 -10 10 -10 19 0 61 48 58 65 -3 11 128 91
232 143 56 27 239 102 250 102 10 0 4 -19 -11 -34 -17 -17 -14 -19 10 -10 9 3
13 10 10 15 -3 5 2 9 10 9 19 0 21 17 4 22 -15 5 122 43 250 70 74 15 101 16
132 8 45 -12 47 -16 24 -41 -9 -10 -14 -23 -12 -30 2 -7 14 4 27 24 48 78 53
79 263 75 102 -1 189 -6 192 -9z m939 -130 l28 -16 -27 -6 c-15 -3 -42 2 -60
11 -30 14 -31 17 -17 28 18 13 32 10 76 -17z m2198 -59 c10 -6 19 -17 19 -25
0 -11 -6 -12 -31 -3 -29 10 -96 6 -146 -8 -17 -5 -23 -2 -23 10 0 29 137 49
181 26z m-308 -59 c-4 -15 -39 -27 -186 -64 -100 -25 -183 -42 -185 -36 -6 14
-24 11 -37 -8 -7 -9 -21 -18 -31 -19 -11 -2 -111 -28 -224 -59 -215 -58 -290
-71 -290 -50 0 7 180 57 473 132 259 66 475 121 479 122 3 0 4 -8 1 -18z m389
2 c9 -10 21 -28 27 -41 7 -12 86 -318 176 -680 91 -361 185 -731 209 -822 37
-133 43 -167 32 -178 -10 -10 -52 144 -220 805 -198 780 -229 892 -255 907 -6
4 -11 11 -11 17 0 15 26 10 42 -8z m-6004 -37 c-13 -19 -27 -34 -33 -33 -5 1
-9 -4 -8 -10 4 -16 -89 -158 -119 -183 -14 -12 -18 -19 -10 -20 10 0 7 -11 -9
-37 -21 -35 -52 -75 -35 -45 4 7 1 15 -8 18 -17 6 -10 35 7 31 7 -1 11 4 9 11
-5 24 153 272 185 291 36 21 44 12 21 -23z m-396 -197 l41 -21 -51 -51 c-56
-57 -76 -97 -67 -137 4 -17 -8 -58 -38 -130 -50 -120 -104 -275 -142 -411 -29
-103 -76 -321 -70 -327 2 -2 37 4 79 14 l75 17 16 76 c24 112 80 307 119 413
54 149 64 168 81 162 19 -8 20 -1 -11 -81 -69 -179 -172 -538 -159 -551 2 -3
100 20 217 50 l213 55 113 269 c62 148 121 277 131 287 10 11 47 25 82 33 80
17 122 17 52 0 -29 -7 -59 -18 -67 -25 -20 -17 -148 -320 -386 -916 -37 -93
-71 -180 -74 -191 -6 -21 -4 -21 156 13 145 30 175 33 273 29 61 -3 119 -6
130 -8 16 -2 23 7 35 45 14 44 43 77 56 64 3 -3 -2 -20 -12 -38 -9 -18 -20
-45 -24 -60 -8 -26 -5 -29 28 -40 21 -6 54 -20 75 -31 44 -22 44 -21 23 79
-12 55 -11 70 3 118 9 30 19 55 22 55 7 0 59 -258 59 -293 0 -13 23 -46 56
-81 54 -58 134 -180 134 -204 0 -7 10 -12 23 -12 17 0 19 -2 8 -9 -12 -8 -13
-16 -2 -53 34 -109 52 -258 38 -298 -3 -8 -8 -37 -12 -63 -3 -26 -15 -72 -25
-102 -13 -39 -15 -55 -7 -59 7 -3 6 -5 -3 -5 -8 -1 -28 -25 -43 -54 l-29 -53
15 -163 c12 -124 20 -168 33 -182 16 -18 16 -19 -12 -19 -59 0 -70 24 -79 170
-4 63 -10 118 -12 123 -2 4 -26 -12 -53 -36 -93 -83 -259 -152 -437 -182 -37
-6 -45 -3 -68 19 -30 30 -31 46 -7 76 13 17 45 28 127 46 139 30 237 78 319
154 170 159 212 422 106 656 -26 57 -29 61 -57 57 -32 -5 -43 11 -43 68 0 18
-13 40 -37 63 -43 42 -175 111 -196 103 -7 -3 -19 -24 -26 -47 -7 -23 -15 -48
-17 -54 -3 -8 13 -20 41 -30 59 -23 156 -113 195 -180 71 -125 81 -305 23
-428 -40 -86 -110 -156 -194 -196 -73 -34 -222 -68 -260 -59 -32 8 -52 48 -40
81 11 28 22 33 128 57 97 21 150 47 199 95 112 113 105 321 -15 447 -59 63
-151 100 -151 62 0 -9 -7 -30 -16 -47 -23 -44 -40 -22 -20 27 9 21 16 40 16
43 0 8 -142 -6 -152 -16 -5 -5 12 -104 37 -227 25 -120 43 -226 39 -237 -3
-10 -16 -25 -28 -34 -27 -17 -69 -6 -84 23 -5 10 -33 134 -62 275 -50 243 -52
258 -37 282 21 31 128 58 250 62 50 1 94 7 102 14 23 19 40 91 23 101 -31 20
-185 9 -365 -27 -173 -35 -182 -38 -177 -58 2 -12 58 -279 124 -595 85 -413
116 -580 109 -593 -26 -49 -92 -47 -113 5 -7 18 -58 247 -112 510 -54 262
-101 477 -104 477 -12 0 -280 -919 -280 -958 0 -10 9 -31 21 -46 l20 -26 -21
0 c-24 0 -61 17 -72 34 -16 24 -6 83 53 288 75 267 181 617 220 728 31 89 35
137 18 209 -12 54 5 86 54 99 30 8 35 16 75 116 23 60 40 111 37 114 -3 3 -67
-11 -142 -31 -76 -20 -139 -35 -140 -33 -2 2 -1 10 2 18 4 10 58 29 155 54
l149 39 20 47 c14 33 16 48 8 48 -21 0 -1040 -261 -1074 -275 -17 -7 -52 -32
-77 -55 -115 -106 -109 -267 25 -720 138 -465 185 -642 223 -839 l13 -73 -26
5 c-14 3 -44 8 -66 12 -22 5 -48 16 -58 26 -10 11 -26 19 -35 19 -14 0 -24 25
-48 124 -23 91 -27 123 -17 119 9 -4 13 3 13 22 0 21 -4 25 -18 21 -15 -5 -31
50 -140 477 -67 265 -127 513 -133 552 -22 140 19 266 120 365 93 91 218 146
441 195 69 15 127 29 128 31 2 1 12 49 22 106 30 170 53 263 60 243 11 -30 55
41 54 86 -1 32 1 35 22 31 33 -6 30 9 -6 33 -16 11 -30 25 -30 30 0 22 31 54
58 60 41 9 92 42 92 61 0 20 -31 11 -88 -28 l-42 -29 39 108 c57 159 59 163
76 163 24 0 95 39 95 52 0 16 -31 48 -47 48 -17 0 -17 14 2 51 13 24 19 28 35
19 26 -14 27 -14 22 20 -4 25 -1 30 16 30 35 0 72 22 78 47 7 28 14 29 66 2z
m5018 -24 c0 -8 -17 -19 -42 -25 -24 -6 -58 -15 -77 -20 -40 -11 -44 -9 -36
13 4 8 32 22 63 30 75 20 92 20 92 2z m-190 -50 c0 -8 -2 -15 -5 -15 -2 0
-278 -70 -614 -155 -335 -85 -616 -152 -625 -149 -9 3 -16 9 -16 13 0 7 1210
319 1243 320 9 1 17 -6 17 -14z m-3596 -91 c24 -9 -70 -124 -102 -124 l-24 0
28 38 c76 101 71 97 98 86z m-1472 -56 c-24 -24 -30 -11 -11 24 8 15 14 17 22
9 8 -8 5 -17 -11 -33z m378 7 c0 -31 -51 -136 -62 -129 -5 3 -16 0 -25 -8 -12
-10 -12 -4 4 27 11 22 30 63 43 92 24 53 40 61 40 18z m757 -81 c-3 -3 -12 -4
-19 -1 -8 3 -5 6 6 6 11 1 17 -2 13 -5z m-64 -11 c-7 -2 -21 -2 -30 0 -10 3
-4 5 12 5 17 0 24 -2 18 -5z m-60 -10 c-7 -2 -19 -2 -25 0 -7 3 -2 5 12 5 14
0 19 -2 13 -5z m2120 0 c-7 -2 -19 -2 -25 0 -7 3 -2 5 12 5 14 0 19 -2 13 -5z
m2010 0 c-7 -2 -21 -2 -30 0 -10 3 -4 5 12 5 17 0 24 -2 18 -5z m-2363 -70
c-392 -81 -387 -79 -404 -106 -15 -23 -29 -213 -42 -547 l-7 -175 57 63 c104
112 246 159 455 150 103 -5 117 -8 133 -28 24 -29 23 -63 -2 -85 -18 -17 -36
-19 -153 -16 -146 2 -227 -15 -298 -63 -139 -95 -164 -331 -47 -447 52 -52
132 -87 264 -114 65 -14 132 -31 148 -37 39 -16 84 -55 101 -89 31 -59 10
-164 -42 -211 -70 -64 -267 -88 -410 -50 l-73 18 0 -69 c0 -54 3 -68 13 -64 8
3 40 -1 73 -9 83 -21 244 -21 321 -1 186 49 271 155 261 326 -6 91 -29 144
-89 195 -52 44 -120 70 -269 103 -63 14 -132 34 -152 44 -56 28 -92 89 -92
153 0 94 63 158 183 186 76 18 237 7 271 -18 32 -24 37 -65 12 -90 -18 -18
-31 -20 -143 -15 -107 4 -129 2 -159 -14 -25 -13 -36 -26 -38 -45 -4 -38 24
-53 143 -77 220 -45 339 -110 402 -220 15 -25 31 -49 36 -52 5 -3 8 -9 7 -13
-1 -4 0 -20 4 -37 4 -22 10 -30 21 -25 8 3 15 1 15 -4 0 -6 -7 -10 -15 -10
-17 0 -18 -2 -9 -24 3 -9 15 -16 25 -16 12 0 16 -5 13 -15 -4 -8 -12 -15 -19
-15 -8 0 -14 -23 -18 -65 -26 -281 -345 -451 -714 -380 -43 8 -79 15 -80 15
-2 0 -3 -100 -3 -221 l0 -221 -22 6 c-13 3 -29 6 -36 6 -11 0 -12 40 -9 208 3
114 6 214 7 222 5 46 24 127 32 137 5 7 7 21 3 33 -3 11 -3 20 2 20 17 0 5 71
-16 93 -26 29 -27 47 0 81 25 31 35 32 119 5 74 -23 201 -28 268 -10 51 14 79
49 62 80 -16 30 -34 37 -156 60 -189 36 -291 89 -367 188 l-42 56 -12 -254
c-24 -544 -26 -632 -14 -625 15 10 14 -2 -2 -19 -10 -9 -16 -57 -20 -157 -6
-133 -5 -145 14 -170 l20 -28 -31 0 c-17 0 -39 9 -51 21 -21 21 -21 28 -15
153 4 72 7 140 7 152 0 13 10 26 27 35 l27 13 -27 4 c-15 2 -38 -4 -52 -14
-22 -14 -31 -14 -56 -4 -16 7 -32 21 -35 31 -4 10 -64 299 -135 641 -120 577
-128 625 -114 646 31 47 88 41 108 -11 7 -18 66 -291 131 -607 65 -316 124
-581 131 -589 8 -8 17 -11 21 -7 4 4 1 11 -6 15 -10 7 -12 38 -7 147 11 239
46 1019 56 1243 5 118 8 216 6 218 -2 2 -102 -21 -222 -51 -158 -40 -221 -52
-226 -43 -4 6 -5 13 -4 15 2 2 104 29 227 60 l224 58 3 47 c2 26 2 47 0 47 -2
0 -27 -7 -55 -14 -30 -8 -55 -10 -58 -5 -5 8 -42 -7 -55 -22 -5 -6 -92 -29
-110 -29 -6 0 -8 5 -5 10 3 6 2 10 -3 10 -6 0 -12 -6 -15 -14 -3 -7 -16 -16
-29 -19 -13 -3 -50 -13 -82 -22 -48 -13 -60 -14 -67 -3 -14 21 -10 28 15 28
14 0 28 5 31 11 4 6 0 9 -11 7 -29 -5 -28 28 0 53 38 33 31 45 -8 15 -19 -14
-41 -26 -48 -26 -10 0 -10 2 1 9 7 5 10 14 6 21 -4 6 1 17 11 25 11 7 15 17
11 22 -5 4 38 20 95 34 369 94 745 190 763 194 11 2 43 10 72 18 34 9 54 10
56 4 2 -7 50 -1 128 15 68 14 135 26 149 26 14 0 -117 -29 -290 -65z m2303 60
c-7 -2 -19 -2 -25 0 -7 3 -2 5 12 5 14 0 19 -2 13 -5z m-343 -67 c-168 -35
-315 -66 -328 -70 -49 -16 -49 -19 -76 -596 -15 -300 -26 -555 -26 -567 0 -18
6 -23 25 -23 30 0 65 -32 65 -60 0 -21 -15 -39 -67 -80 -29 -23 -32 -32 -39
-99 l-7 -74 58 31 c32 18 68 32 78 32 52 0 76 -72 37 -108 -21 -19 -103 -63
-152 -81 l-28 -11 0 -117 c-1 -65 -3 -160 -6 -212 -4 -67 -3 -91 5 -87 6 4 11
3 11 -3 0 -5 -4 -11 -9 -13 -5 -1 -13 -68 -17 -148 -8 -127 -7 -149 7 -177
l17 -33 -26 0 c-40 0 -72 36 -72 83 0 36 -2 39 -22 33 -162 -44 -509 -128
-528 -128 -14 0 -27 -4 -30 -8 -11 -15 -334 -92 -368 -87 -24 4 -38 1 -51 -12
-9 -9 -73 -31 -141 -49 -139 -36 -144 -36 -135 -21 4 6 1 9 -6 8 -8 -2 -24 2
-35 9 -32 17 -214 22 -214 5 0 -7 3 -14 8 -14 44 -8 79 -11 144 -13 43 -2 80
-5 83 -8 3 -2 -151 -44 -342 -93 -192 -48 -352 -90 -357 -93 -5 -3 -1 -11 9
-19 17 -12 17 -13 2 -13 -34 0 -13 -36 23 -41 19 -3 25 -10 24 -26 0 -13 3
-23 7 -23 4 0 15 -3 25 -7 12 -4 15 -3 10 5 -7 12 40 29 51 18 4 -3 -3 -6 -15
-6 -23 0 -30 -25 -9 -33 8 -3 9 -8 2 -15 -6 -7 -26 -8 -53 -3 -23 5 -45 4 -48
0 -3 -5 0 -9 5 -9 6 0 11 -8 11 -17 0 -15 2 -16 10 -3 12 19 42 19 56 0 7 -8
31 -14 60 -15 27 0 55 -4 62 -8 17 -11 15 3 -4 24 -12 13 -13 22 -5 37 11 20
12 20 70 -5 48 -21 61 -31 66 -53 4 -19 14 -30 32 -35 35 -8 49 8 26 31 -17
17 -17 18 2 10 64 -24 194 -53 375 -82 33 -5 34 -7 15 -20 -17 -12 -17 -14 -2
-14 10 0 20 7 23 15 5 11 23 13 97 9 115 -6 311 9 448 36 57 11 113 21 124 23
11 2 33 9 48 15 36 15 37 15 37 -4 0 -12 5 -14 18 -9 9 4 29 10 45 13 30 5 36
19 10 24 -11 2 7 13 42 27 33 13 92 38 131 56 53 25 82 32 116 30 35 -3 47 1
56 16 13 20 9 23 -28 21 -25 -2 113 61 140 63 92 8 149 19 143 28 -3 5 -28 7
-59 3 -46 -5 -53 -4 -47 10 3 8 12 13 20 9 10 -3 13 -1 10 9 -4 9 12 29 41 52
26 21 75 64 109 96 34 32 67 58 74 58 24 0 99 32 99 42 0 6 -16 8 -35 6 l-36
-4 31 30 c29 30 32 30 136 33 86 1 110 5 127 20 26 21 19 12 -52 -80 -29 -37
-58 -67 -65 -66 -29 4 -47 -3 -65 -22 -15 -16 -26 -20 -46 -15 -35 9 -24 -8
15 -24 16 -7 30 -16 30 -20 0 -12 -146 -146 -236 -216 -54 -42 -91 -64 -109
-64 -14 0 -24 -4 -20 -9 3 -5 -2 -17 -11 -25 -14 -15 -17 -14 -34 6 -15 17
-19 19 -20 7 0 -8 5 -20 12 -27 8 -8 4 -14 -18 -24 -16 -7 -31 -15 -34 -19 -6
-8 -47 -29 -55 -29 -4 0 -5 7 -2 15 4 8 2 17 -3 20 -6 4 -10 0 -10 -7 -1 -9
-4 -9 -13 3 -14 18 -77 34 -77 19 0 -6 -7 -10 -17 -10 -28 0 -5 -13 28 -15 47
-4 57 -20 28 -48 -13 -13 -39 -32 -56 -41 -29 -14 -33 -15 -33 -1 0 11 -9 14
-35 12 -21 -1 -35 -7 -35 -15 0 -7 6 -12 13 -11 78 10 22 -21 -128 -70 -202
-67 -470 -111 -671 -111 -57 0 -73 3 -78 16 -4 9 0 21 9 28 12 9 8 14 -25 30
-44 21 -49 20 -55 -14 -3 -16 0 -20 10 -16 9 3 15 0 15 -8 0 -8 6 -17 13 -20
12 -5 -92 -1 -163 6 -19 2 -50 5 -67 6 -25 2 -33 7 -33 21 0 11 -6 22 -12 24
-8 3 -5 6 5 6 10 1 16 5 12 11 -3 5 -12 7 -20 3 -9 -3 -27 2 -41 12 -14 9 -35
15 -45 12 -13 -3 -24 2 -32 14 -15 24 -37 25 -30 1 5 -20 -20 -24 -46 -7 -9 5
-12 4 -8 -1 3 -6 2 -16 -2 -22 -13 -21 -233 63 -390 148 -35 19 -75 41 -90 49
-14 7 -63 38 -107 68 l-82 54 -63 -16 c-98 -24 -97 -24 -74 -42 19 -15 19 -15
-4 -8 -49 15 -91 36 -91 45 0 6 -14 10 -30 10 -34 0 -52 -26 -29 -41 23 -14 0
-25 -108 -51 l-102 -25 -5 24 c-5 19 -9 21 -20 11 -9 -9 -11 -17 -5 -25 6 -6
6 -13 2 -16 -4 -2 -149 -40 -320 -83 -172 -44 -313 -81 -313 -84 0 -3 36 -45
80 -95 43 -49 77 -92 74 -94 -3 -3 -9 1 -13 8 -5 7 -25 21 -44 30 -20 9 -59
43 -88 76 -33 38 -63 62 -81 66 -15 4 -28 3 -28 -1 0 -4 -22 -7 -50 -6 -27 1
-50 5 -50 9 0 5 -9 7 -20 5 -12 -2 -21 -7 -20 -13 0 -10 4 -12 41 -14 17 -1
19 -4 10 -14 -8 -11 7 -35 67 -108 147 -176 358 -376 562 -530 58 -44 79 -65
67 -67 -9 -2 -15 -8 -12 -13 4 -5 1 -9 -6 -9 -8 0 -9 -3 0 -13 6 -8 7 -17 3
-21 -4 -4 5 -5 21 -1 17 5 27 3 27 -4 0 -6 4 -11 9 -11 5 0 7 9 4 20 -3 11 -9
20 -12 20 -4 0 -8 6 -8 14 0 22 27 6 38 -21 5 -13 13 -21 19 -18 5 3 7 0 4 -8
-4 -11 5 -17 35 -22 37 -6 68 -25 42 -25 -6 0 -11 -6 -11 -14 0 -10 12 -13 43
-11 57 4 80 -9 35 -20 -26 -6 -29 -9 -13 -12 11 -3 24 -9 29 -13 5 -5 19 -5
31 0 19 7 51 -5 164 -62 95 -47 141 -75 141 -87 0 -13 2 -13 9 -2 7 11 22 8
82 -15 68 -27 71 -29 42 -32 -26 -3 -33 -8 -33 -24 0 -17 3 -18 15 -8 9 8 35
10 77 6 65 -5 179 -37 179 -49 -2 -23 3 -27 39 -27 27 0 47 -7 60 -20 23 -23
50 -29 31 -7 -6 8 -9 16 -6 19 3 3 53 -6 112 -19 171 -38 345 -62 551 -75 105
-6 192 -16 192 -21 0 -6 5 -5 13 1 6 5 43 13 80 17 59 6 70 4 82 -11 12 -17
14 -17 29 -2 16 17 25 19 196 39 86 10 319 52 363 65 11 4 17 0 17 -10 0 -23
31 -20 37 4 3 11 9 17 14 14 5 -3 9 0 9 5 0 6 6 11 14 11 22 0 264 79 371 122
55 22 152 64 215 94 63 30 116 50 118 44 2 -5 13 -10 25 -10 21 1 21 1 4 14
-17 13 -10 19 77 70 52 31 107 56 122 56 18 0 25 4 21 13 -8 21 52 52 98 52
44 0 59 17 23 25 -22 6 -21 7 17 33 22 15 45 27 52 27 7 0 13 4 13 9 0 5 41
42 90 83 50 40 152 133 227 206 92 89 140 129 147 122 5 -5 21 -10 34 -10 21
0 23 3 18 25 -6 24 -5 25 21 19 25 -7 27 -6 15 9 -8 9 -23 17 -34 19 -21 3
-21 3 3 32 22 25 28 27 46 17 38 -20 57 -13 81 30 24 41 24 41 36 18 14 -26 4
-64 -22 -86 -8 -6 -11 -16 -7 -22 6 -10 0 -13 -35 -15 -8 -1 -27 -23 -41 -49
-36 -66 -43 -73 -72 -60 -19 9 -24 8 -24 -3 0 -7 4 -11 8 -8 7 4 43 -10 57
-21 2 -2 -15 -30 -37 -63 -80 -117 -453 -439 -493 -426 -11 3 -18 0 -18 -7 0
-10 -3 -10 -12 -1 -7 7 -18 12 -26 12 -12 0 -11 -5 2 -25 16 -24 16 -26 -11
-37 -15 -7 -32 -18 -36 -25 -4 -7 -14 -13 -22 -13 -7 0 -15 -4 -17 -8 -6 -16
-177 -114 -338 -193 -151 -74 -193 -90 -186 -74 7 19 -49 61 -60 43 -4 -7 1
-17 14 -26 36 -23 26 -38 -43 -66 -60 -24 -95 -26 -95 -5 0 5 -11 2 -25 -7
-20 -13 -25 -13 -25 -3 0 11 -2 11 -9 0 -7 -10 -4 -19 6 -26 14 -10 13 -13
-11 -19 -15 -4 -32 -4 -38 0 -6 4 -8 3 -5 -3 9 -14 -34 -25 -48 -13 -7 6 -17
2 -28 -10 -16 -18 -41 -25 -76 -20 -8 1 -17 -3 -20 -8 -3 -6 -19 -14 -34 -17
-21 -6 -27 -4 -27 10 0 9 -5 13 -11 9 -6 -3 -14 -2 -18 4 -7 12 -101 4 -101
-9 0 -5 14 -9 30 -9 17 0 30 -3 30 -6 0 -15 -31 -33 -66 -38 -22 -3 -75 -13
-118 -21 -120 -22 -324 -44 -490 -51 l-149 -7 6 31 c7 34 -7 52 -26 33 -9 -9
-9 -14 1 -20 7 -4 10 -15 6 -25 -6 -16 -17 -17 -113 -11 -157 9 -383 35 -403
46 -10 6 -22 7 -27 4 -5 -3 -11 0 -13 7 -3 8 -22 11 -54 10 -27 -1 -62 2 -79
7 -24 7 -26 9 -8 10 12 1 25 6 29 12 3 6 -1 10 -12 9 -31 -4 -44 -1 -44 10 0
6 8 10 18 10 10 0 27 6 37 14 11 8 25 12 32 9 7 -3 13 0 13 7 0 8 -8 10 -22 6
-13 -4 -39 -9 -58 -12 -26 -4 -31 -2 -20 5 13 9 13 11 -1 11 -9 0 -22 -6 -28
-14 -10 -11 -8 -15 6 -19 12 -3 8 -5 -9 -6 -16 0 -31 -1 -34 0 -4 0 -10 -5
-14 -11 -13 -20 -338 76 -333 99 2 6 -12 11 -35 12 -20 0 -59 11 -87 25 -33
16 -41 22 -22 19 15 -3 27 -3 27 -1 0 3 -12 13 -27 21 -16 9 -20 14 -10 11 9
-3 17 -1 17 4 0 10 -5 12 -32 14 -6 1 -12 -7 -14 -17 -1 -11 -4 -20 -6 -23 -6
-6 -225 103 -233 116 -4 7 -3 15 3 19 6 3 14 19 17 34 4 15 13 27 21 27 9 0 6
12 -12 37 -14 21 -30 41 -36 44 -13 8 -98 -19 -98 -32 0 -5 -9 -9 -20 -9 -13
0 -18 -5 -14 -15 4 -10 0 -15 -15 -15 -12 0 -21 6 -21 14 0 7 -9 16 -20 19
-24 6 -27 27 -4 27 8 0 12 5 9 10 -9 15 -55 12 -55 -3 0 -7 6 -19 13 -26 6 -8
-3 -5 -20 5 -18 10 -33 24 -33 32 0 8 -6 12 -12 9 -16 -5 -150 86 -278 188
-195 156 -433 397 -585 593 -26 34 -53 62 -60 62 -6 0 -56 -13 -111 -30 -444
-132 -692 -44 -793 284 -23 74 -26 100 -11 91 5 -3 7 -12 3 -20 -3 -9 1 -15
10 -15 8 0 18 7 21 16 6 15 9 15 29 -5 35 -32 52 -27 27 9 -12 16 -30 30 -40
30 -13 0 -17 5 -14 15 3 8 11 13 16 12 20 -4 20 24 0 30 -13 3 -19 10 -15 20
5 13 3 13 -15 4 -24 -13 -25 -11 -16 13 3 9 17 16 31 16 15 0 23 5 21 12 -4
12 14 38 26 38 4 0 4 -11 0 -25 -5 -20 -2 -25 13 -25 29 0 49 -28 66 -92 13
-52 13 -56 -2 -51 -11 3 -10 -1 5 -14 12 -10 26 -33 33 -52 27 -82 103 -142
205 -162 78 -16 188 0 381 56 84 24 188 52 231 60 77 16 79 16 95 -4 20 -24
29 -27 29 -7 0 8 -7 17 -16 20 -9 4 -14 9 -11 12 7 8 105 33 150 39 33 4 39 2
47 -20 6 -15 17 -25 29 -25 11 0 21 -7 23 -17 2 -12 14 -16 45 -17 30 -1 47
-7 57 -21 14 -20 15 -20 24 6 13 34 4 79 -17 80 -27 1 -55 7 -88 17 -17 6 -34
8 -37 4 -3 -3 -6 -1 -6 5 0 5 145 47 321 92 315 81 322 82 355 66 30 -14 36
-14 49 -2 10 10 11 17 3 25 -7 7 2 14 33 22 24 6 59 15 77 20 19 5 40 6 49 3
8 -3 18 -1 22 6 6 9 809 221 836 221 3 0 4 -3 3 -7 -3 -14 13 -53 22 -53 17 0
19 17 6 42 -13 25 -12 26 16 32 17 3 34 3 39 0 5 -3 9 0 9 5 0 6 7 11 15 11 8
0 15 -6 15 -14 0 -15 35 -16 58 -2 7 4 21 4 32 1 30 -10 44 4 25 25 -18 20
-31 16 436 133 l245 62 120 -7 c65 -3 121 -4 123 -2 3 2 -1 10 -8 17 -7 7 -37
12 -72 11 -33 -1 -56 2 -52 6 15 13 583 152 598 147 17 -7 31 11 27 34 -2 9 9
21 25 29 l28 14 -25 4 c-14 2 -28 9 -31 14 -4 7 -235 -48 -620 -146 -338 -86
-620 -156 -627 -156 -6 0 -12 7 -12 15 0 8 3 15 8 15 30 1 1258 322 1260 330
2 5 10 10 18 10 8 0 14 5 14 10 0 6 -7 10 -16 10 -12 0 -15 11 -13 58 3 69 7
82 24 76 7 -3 16 -1 20 5 6 10 -8 16 -29 12 -4 -1 -6 30 -4 69 l4 71 -51 -8
c-27 -4 -104 -8 -170 -7 -135 1 -217 23 -323 86 -72 43 -188 158 -231 231 -63
108 -111 264 -111 367 0 22 -3 40 -6 40 -3 0 -25 -11 -49 -25 -52 -31 -185
-80 -240 -89 -29 -4 -19 2 39 24 83 31 170 77 223 117 26 20 33 34 43 91 6 36
22 96 34 132 23 65 23 67 6 122 -21 67 -52 113 -94 139 -27 17 -28 19 -9 19
56 0 112 -40 144 -103 l20 -38 38 48 c75 95 199 175 339 220 96 31 294 43 357
21 50 -17 67 -54 42 -92 -17 -25 -19 -25 -145 -25 -194 1 -317 -41 -434 -149
-121 -112 -180 -247 -180 -412 -1 -377 283 -643 639 -598 118 14 127 21 131
96 2 34 0 62 -4 62 -3 0 -34 -7 -68 -16 -80 -21 -201 -15 -279 15 -113 44
-202 139 -249 266 -32 87 -32 256 0 337 78 193 300 308 512 264 40 -9 81 -23
91 -32 24 -22 24 -55 1 -84 -18 -22 -21 -23 -86 -10 -87 16 -171 8 -238 -22
-77 -36 -113 -71 -149 -143 -30 -61 -31 -69 -27 -157 7 -150 62 -240 179 -293
56 -25 70 -27 148 -23 88 5 171 34 171 61 0 6 9 183 19 392 11 209 23 463 26
565 7 195 15 243 43 256 26 11 664 142 692 142 14 0 -112 -28 -280 -62z m634
-90 c188 -36 367 -156 466 -312 34 -54 38 -89 13 -116 -16 -18 -59 -24 -79
-10 -6 4 -25 28 -43 55 -74 109 -185 194 -311 238 -54 19 -85 23 -185 23 -103
0 -132 -4 -200 -27 -236 -78 -378 -261 -392 -507 -12 -219 85 -431 250 -544
168 -116 402 -126 602 -27 98 49 161 102 222 188 46 65 103 204 103 254 0 64
75 103 115 59 24 -26 17 -109 -18 -209 -78 -223 -269 -400 -503 -466 -87 -25
-263 -30 -354 -11 -308 65 -528 339 -547 681 -18 316 156 587 441 691 146 53
283 66 420 40z m-3964 -131 c-7 -8 -16 -12 -21 -9 -13 8 -1 24 18 24 13 0 13
-3 3 -15z m77 -45 c1 -16 -4 -20 -28 -20 -32 0 -38 14 -11 29 26 16 38 13 39
-9z m3842 -85 c230 -54 384 -284 345 -512 -43 -254 -264 -421 -507 -383 -128
20 -287 126 -287 192 0 42 31 65 80 58 8 -1 33 -19 55 -39 22 -20 54 -43 72
-50 29 -12 36 -10 110 28 99 52 146 90 181 149 25 43 27 55 27 152 0 95 -3
110 -28 163 -18 36 -43 67 -65 83 l-37 26 35 -7 c31 -5 33 -4 15 7 -11 7 -52
12 -95 12 -131 0 -228 -63 -295 -191 -36 -68 -68 -86 -109 -59 -78 51 44 255
197 331 112 55 195 66 306 40z m-3859 -15 c0 -5 -9 -10 -20 -10 -11 0 -20 5
-20 10 0 6 9 10 20 10 11 0 20 -4 20 -10z m-260 -50 c0 -5 -7 -10 -15 -10 -8
0 -15 5 -15 10 0 6 7 10 15 10 8 0 15 -4 15 -10z m310 -75 c0 -8 -7 -15 -15
-15 -16 0 -20 12 -8 23 11 12 23 8 23 -8z m-840 -161 c0 -14 -4 -23 -10 -19
-5 3 -10 15 -10 26 0 10 5 19 10 19 6 0 10 -12 10 -26z m2940 -45 c0 -5 -4 -9
-10 -9 -5 0 -10 7 -10 16 0 8 5 12 10 9 6 -3 10 -10 10 -16z m-2933 -71 c-3
-7 -5 -2 -5 12 0 14 2 19 5 13 2 -7 2 -19 0 -25z m2953 12 c0 -5 -8 -10 -17
-10 -15 0 -16 2 -3 10 19 12 20 12 20 0z m-2510 -14 c0 -7 -7 -19 -15 -26 -19
-16 -41 1 -32 24 8 20 47 21 47 2z m549 -83 c19 -16 40 -108 152 -647 75 -360
128 -638 125 -652 -14 -54 -83 -55 -116 -1 -14 22 -20 26 -20 14 0 -9 4 -25
10 -35 12 -21 39 -180 32 -187 -9 -8 -42 27 -42 45 0 9 -5 21 -12 28 -19 19
-56 160 -45 171 7 7 5 13 -7 17 -13 5 -15 14 -11 35 4 17 0 40 -11 60 -16 33
-16 33 15 58 38 31 43 72 9 64 -13 -3 -35 -17 -50 -31 -30 -28 -34 -27 -40 3
-2 16 2 19 21 17 19 -2 22 1 18 19 -5 19 -2 21 29 17 23 -3 34 0 34 9 0 7 -43
218 -95 469 -52 252 -95 470 -95 485 0 29 31 59 61 59 9 0 26 -8 38 -17z
m2237 -92 c-4 -6 -14 -7 -23 -4 -15 6 -14 7 3 13 22 9 29 6 20 -9z m-3870 -27
c0 -1 -13 -4 -28 -8 -22 -5 -28 -3 -28 9 0 23 43 37 51 16 4 -9 6 -16 5 -17z
m-105 -25 c-9 -4 -32 -10 -51 -14 -35 -7 -35 -7 -17 13 11 11 25 18 32 16 7
-3 16 -1 20 5 4 7 10 7 19 -2 12 -10 11 -13 -3 -18z m-153 -26 c-2 -12 -46
-27 -183 -62 -192 -49 -224 -63 -256 -114 -27 -43 -21 -139 16 -265 19 -68 24
-97 16 -105 -6 -6 -12 -9 -14 -6 -14 16 -59 208 -63 269 -5 65 -2 81 18 119
13 25 35 54 50 64 22 17 363 114 406 116 8 1 12 -7 10 -16z m3189 -119 c-3 -3
-12 -4 -19 -1 -8 3 -5 6 6 6 11 1 17 -2 13 -5z m4122 -140 c-12 -26 -37 -56
-58 -69 -39 -26 -129 -57 -142 -49 -5 2 -16 0 -26 -6 -10 -6 -364 -98 -788
-206 -423 -107 -847 -215 -942 -239 -95 -25 -175 -45 -178 -45 -4 0 -5 7 -3
17 2 13 205 67 978 264 536 136 998 255 1027 264 58 18 108 67 119 119 4 17
11 42 17 56 11 24 12 23 15 -18 2 -30 -4 -57 -19 -88z m-5645 70 c20 -8 21
-34 1 -34 -8 0 -15 6 -15 14 0 8 -6 17 -12 19 -9 4 -9 6 -1 6 6 1 18 -2 27 -5z
m161 -34 c3 -5 -3 -10 -14 -10 -11 0 -23 5 -26 10 -3 6 3 10 14 10 11 0 23 -4
26 -10z m-110 -40 c3 -5 -1 -10 -10 -10 -9 0 -13 5 -10 10 3 6 8 10 10 10 2 0
7 -4 10 -10z m122 -33 c-21 -18 -24 -26 -15 -35 7 -7 18 -12 25 -12 7 0 13 -5
13 -11 0 -21 -54 -4 -69 23 -20 34 -2 58 43 58 l31 -1 -28 -22z m2928 13 c3
-5 2 -10 -4 -10 -5 0 -13 5 -16 10 -3 6 -2 10 4 10 5 0 13 -4 16 -10z m875 0
c0 -5 -7 -10 -15 -10 -8 0 -15 5 -15 10 0 6 7 10 15 10 8 0 15 -4 15 -10z
m-3950 -20 c0 -5 -4 -10 -9 -10 -6 0 -13 5 -16 10 -3 6 1 10 9 10 9 0 16 -4
16 -10z m3065 -20 c4 -6 -7 -10 -25 -10 -18 0 -29 4 -25 10 3 6 15 10 25 10
10 0 22 -4 25 -10z m-2995 -170 c0 -11 -4 -20 -9 -20 -5 0 -11 9 -14 20 -3 13
0 20 9 20 8 0 14 -9 14 -20z m3748 -22 c-6 -18 -28 -21 -28 -4 0 9 7 16 16 16
9 0 14 -5 12 -12z m-1958 -38 c0 -5 -4 -10 -10 -10 -5 0 -10 5 -10 10 0 6 5
10 10 10 6 0 10 -4 10 -10z m1694 -11 c-3 -5 -10 -7 -15 -3 -5 3 -7 10 -3 15
3 5 10 7 15 3 5 -3 7 -10 3 -15z m306 11 c0 -5 -4 -10 -10 -10 -5 0 -10 5 -10
10 0 6 5 10 10 10 6 0 10 -4 10 -10z m-2300 -4 c0 -11 -19 -15 -25 -6 -3 5 1
10 9 10 9 0 16 -2 16 -4z m-3630 -51 c0 -9 -6 -12 -15 -9 -8 4 -12 10 -9 15 8
14 24 10 24 -6z m109 -432 c60 -238 95 -395 90 -399 -12 -7 -20 -1 -23 18 -1
7 -10 38 -19 68 -8 30 -52 199 -96 374 -63 251 -78 323 -68 334 6 8 12 10 14
6 1 -5 47 -186 102 -401z m4941 -9 l0 -356 -27 7 c-16 4 -30 9 -33 12 -7 7 -4
379 4 433 12 89 18 115 27 127 6 6 11 33 13 60 5 70 5 73 11 73 3 0 5 -160 5
-356z m-2782 266 c11 -18 10 -20 -12 -20 -27 0 -41 14 -31 30 10 16 29 12 43
-10z m-871 -6 c-3 -3 -12 -4 -19 -1 -8 3 -5 6 6 6 11 1 17 -2 13 -5z m3520
-100 c-3 -3 -12 -4 -19 -1 -8 3 -5 6 6 6 11 1 17 -2 13 -5z m343 -164 c0 -5
-5 -10 -11 -10 -5 0 -7 5 -4 10 3 6 8 10 11 10 2 0 4 -4 4 -10z m-3193 -16
c-3 -3 -12 -4 -19 -1 -8 3 -5 6 6 6 11 1 17 -2 13 -5z m1180 -26 c-3 -8 -6 -5
-6 6 -1 11 2 17 5 13 3 -3 4 -12 1 -19z m2006 2 c-3 -11 -7 -20 -9 -20 -2 0
-4 9 -4 20 0 11 4 20 9 20 5 0 7 -9 4 -20z m-4023 -50 c0 -5 -2 -10 -4 -10 -3
0 -8 5 -11 10 -3 6 -1 10 4 10 6 0 11 -4 11 -10z m890 -40 c0 -5 -4 -10 -10
-10 -5 0 -10 5 -10 10 0 6 5 10 10 10 6 0 10 -4 10 -10z m34 -156 c11 -27 7
-37 -9 -24 -16 14 -20 40 -6 40 5 0 12 -7 15 -16z m-1867 -404 c40 -158 81
-296 91 -310 33 -45 79 -62 152 -56 36 2 76 8 89 12 19 6 22 4 19 -12 -2 -15
-19 -22 -71 -33 -87 -18 -137 -5 -189 50 -43 46 -48 58 -133 392 -53 208 -61
248 -47 245 13 -2 33 -67 89 -288z m2883 266 c0 -1 -56 -18 -125 -36 -108 -28
-127 -31 -141 -19 -15 12 -7 17 72 36 76 18 194 30 194 19z m-330 -66 c0 -5
-10 -15 -22 -21 -24 -13 -160 -50 -165 -45 -2 1 3 10 10 20 7 9 44 25 82 36
83 22 95 23 95 10z m4040 0 c0 -5 -5 -10 -11 -10 -5 0 -7 5 -4 10 3 6 8 10 11
10 2 0 4 -4 4 -10z m-4264 -77 c-10 -10 -19 5 -10 18 6 11 8 11 12 0 2 -7 1
-15 -2 -18z m-58 0 c-2 -12 -45 -27 -168 -59 -91 -24 -171 -41 -179 -38 -8 2
-17 1 -20 -5 -6 -9 -633 -173 -639 -166 -2 1 6 11 17 21 28 26 643 182 649
165 3 -9 10 -7 24 6 11 10 84 34 161 55 170 43 159 42 155 21z m-2581 -105
c-3 -8 -6 -5 -6 6 -1 11 2 17 5 13 3 -3 4 -12 1 -19z m44 -81 c-1 -12 -15 -9
-19 4 -3 6 1 10 8 8 6 -3 11 -8 11 -12z m6493 -89 c-56 -89 -124 -187 -135
-193 -6 -4 -15 -3 -21 3 -13 13 121 221 139 215 6 -2 14 1 18 6 3 6 10 11 16
11 5 0 -3 -19 -17 -42z m-5001 8 c8 -20 -402 -124 -414 -105 -4 8 -7 14 -6 15
8 8 277 70 277 64 0 -4 16 -4 36 -1 21 3 36 10 35 16 -5 22 64 33 72 11z
m-457 -113 c-1 -14 -22 -23 -86 -40 -106 -28 -114 -28 -101 -6 7 14 123 53
182 62 4 1 6 -7 5 -16z m4114 -42 c0 -14 -45 -49 -139 -109 -75 -48 -99 -59
-113 -51 -11 6 -18 6 -18 0 0 -5 5 -11 12 -13 16 -6 -192 -106 -312 -151 -52
-19 -145 -49 -207 -65 -108 -29 -112 -30 -128 -12 -16 17 -14 19 41 30 93 19
270 78 391 130 112 48 299 151 360 197 20 16 39 22 51 19 15 -5 21 -1 26 18 4
17 11 23 21 20 8 -4 15 -9 15 -13z m-2616 -53 c128 -87 348 -195 504 -248 75
-26 132 -50 132 -57 0 -15 17 -18 22 -4 3 9 183 -28 204 -41 7 -4 70 -10 140
-14 127 -5 173 -16 182 -42 3 -11 -11 -12 -69 -7 -345 30 -607 100 -884 236
-136 67 -316 180 -297 186 6 3 9 9 6 14 -4 6 -11 6 -19 -1 -15 -12 -41 13 -30
30 9 15 11 15 109 -52z m4064 20 c7 -7 12 -18 12 -25 0 -10 -5 -10 -25 -1 -26
12 -34 38 -12 38 7 0 18 -5 25 -12z m-5888 -22 c0 -2 -9 -6 -20 -9 -11 -3 -18
-1 -14 4 5 9 34 13 34 5z m6025 -9 c11 -9 14 -16 7 -21 -15 -9 -42 4 -42 20 0
18 11 18 35 1z m-93 -74 c18 -15 35 -28 37 -30 4 -3 -109 -162 -121 -169 -11
-7 -26 60 -15 67 15 10 -4 15 -60 14 -28 0 -49 3 -46 8 2 4 0 7 -5 7 -5 0 -13
-8 -16 -17 -14 -38 -32 -61 -44 -54 -8 5 7 31 47 83 l58 76 27 -18 c15 -9 26
-21 24 -26 -4 -11 104 -25 115 -15 4 4 -9 26 -28 48 -19 23 -35 44 -35 47 0
14 31 4 62 -21z m73 17 c-3 -5 -12 -7 -20 -3 -21 7 -19 13 6 13 11 0 18 -4 14
-10z m-425 -24 c0 -3 -4 -8 -10 -11 -5 -3 -10 -1 -10 4 0 6 5 11 10 11 6 0 10
-2 10 -4z m-45 -56 c-3 -6 -18 -10 -32 -10 l-26 0 23 25 c20 22 25 23 33 10 4
-8 5 -20 2 -25z m-73 -87 c-68 -78 -251 -257 -338 -330 -139 -117 -381 -287
-371 -259 4 9 2 16 -3 16 -18 0 -10 17 13 27 27 13 270 186 312 223 147 130
240 219 294 279 54 62 102 97 134 100 5 1 -14 -25 -41 -56z m-4510 -221 c125
-112 305 -251 394 -305 58 -35 67 -47 32 -43 -38 5 -117 47 -183 98 -187 144
-405 337 -405 360 0 23 53 -12 162 -110z m2511 107 c-6 -6 -9 -17 -7 -24 4 -9
-21 -16 -93 -23 -211 -24 -223 -24 -223 -8 0 8 -10 17 -22 20 -13 2 1 3 30 2
28 -2 52 1 52 5 0 5 21 9 48 10 26 0 83 6 127 13 44 7 84 14 90 15 5 0 4 -4
-2 -10z m2314 -26 c-9 -9 -20 -13 -24 -9 -4 4 -1 11 7 16 25 16 35 11 17 -7z
m-4299 -480 c27 -30 27 -34 2 -30 -28 4 -82 46 -74 58 8 14 45 0 72 -28z
m3233 -4 c-26 -21 -41 -24 -41 -8 0 6 -7 8 -15 5 -44 -18 -46 -15 -5 12 36 23
49 27 64 19 19 -9 19 -10 -3 -28z m-3166 -27 c-3 -3 -11 0 -18 7 -9 10 -8 11
6 5 10 -3 15 -9 12 -12z m3075 -9 c0 -2 -16 -11 -35 -19 -19 -8 -35 -20 -35
-28 0 -22 -423 -206 -438 -191 -3 3 5 9 18 12 l25 7 -25 7 -25 6 30 12 c176
68 228 91 336 145 107 54 149 68 149 49z m-3063 -19 c-3 -3 -12 -4 -19 -1 -8
3 -5 6 6 6 11 1 17 -2 13 -5z m159 -55 c49 -23 91 -46 92 -50 2 -5 10 -9 19
-9 8 0 75 -22 149 -50 74 -27 141 -50 149 -50 8 0 15 -4 15 -10 0 -5 -5 -10
-12 -10 -9 0 -9 -3 1 -12 11 -11 15 -10 23 3 10 14 19 14 92 -7 185 -52 508
-104 648 -104 32 0 58 -2 58 -4 0 -29 -16 -36 -84 -36 -40 0 -75 3 -79 6 -3 4
-37 8 -74 10 -159 7 -460 75 -703 159 -143 50 -420 172 -420 185 0 5 8 11 18
13 9 3 18 5 18 6 1 0 41 -18 90 -40z m2364 -149 c0 -5 -5 -10 -11 -10 -5 0 -7
5 -4 10 3 6 8 10 11 10 2 0 4 -4 4 -10z m-90 -30 c0 -5 -2 -10 -4 -10 -3 0 -8
5 -11 10 -3 6 -1 10 4 10 6 0 11 -4 11 -10z m-58 -16 c-24 -11 -32 -19 -28
-31 4 -10 2 -14 -8 -10 -7 3 -17 2 -22 -3 -11 -10 -168 -45 -289 -64 -156 -25
-171 -26 -155 -16 12 8 9 10 -12 10 -14 0 -28 -5 -30 -11 -2 -7 -50 -15 -123
-19 -110 -7 -150 -4 -117 7 6 3 9 10 5 16 -3 7 -3 9 2 5 4 -4 16 -3 26 2 12 7
19 6 21 -1 3 -9 9 -9 23 -1 11 6 79 16 150 22 144 13 342 47 480 84 104 28
124 30 77 10z m-2569 -27 c9 -3 17 -11 17 -17 0 -7 -12 -4 -29 6 -17 10 -27
22 -24 27 3 6 8 6 12 0 3 -5 14 -12 24 -16z m1717 -118 c0 -5 -9 -9 -20 -9
-11 0 -20 6 -20 14 0 9 7 12 20 9 11 -3 20 -9 20 -14z m-65 1 c4 -6 -7 -10
-25 -10 -18 0 -29 4 -25 10 3 6 15 10 25 10 10 0 22 -4 25 -10z m-735 -235
c10 -13 9 -15 -11 -14 -13 0 -18 3 -11 6 6 2 10 9 6 14 -9 15 2 10 16 -6z"/>
<path d="M4502 7398 c-14 -14 -16 -38 -4 -38 10 0 42 33 42 43 0 11 -25 8 -38
-5z"/>
<path d="M4445 7340 c-3 -5 -2 -10 4 -10 5 0 13 5 16 10 3 6 2 10 -4 10 -5 0
-13 -4 -16 -10z"/>
<path d="M3957 7333 c-31 -5 -46 -28 -29 -45 8 -8 19 -4 41 13 28 23 40 41 24
38 -5 -1 -21 -4 -36 -6z"/>
<path d="M3185 7210 c-3 -5 1 -10 9 -10 9 0 16 5 16 10 0 6 -4 10 -9 10 -6 0
-13 -4 -16 -10z"/>
<path d="M3069 7073 c-13 -16 -12 -17 4 -4 16 13 21 21 13 21 -2 0 -10 -8 -17
-17z"/>
<path d="M6080 6981 c0 -5 7 -11 14 -14 10 -4 13 -1 9 9 -6 15 -23 19 -23 5z"/>
<path d="M6140 6920 c0 -5 5 -10 11 -10 5 0 7 5 4 10 -3 6 -8 10 -11 10 -2 0
-4 -4 -4 -10z"/>
<path d="M6110 6886 c0 -7 9 -16 21 -19 15 -4 19 -2 15 10 -3 8 -6 17 -6 19 0
2 -7 4 -15 4 -8 0 -15 -6 -15 -14z"/>
<path d="M5995 6880 c-3 -5 -1 -10 4 -10 6 0 11 5 11 10 0 6 -2 10 -4 10 -3 0
-8 -4 -11 -10z"/>
<path d="M6180 6850 c12 -23 30 -26 48 -8 20 20 14 28 -23 28 -33 0 -35 -2
-25 -20z"/>
<path d="M6280 6770 c0 -12 48 -25 58 -16 8 9 -18 26 -40 26 -10 0 -18 -4 -18
-10z"/>
<path d="M6415 6750 c-4 -6 0 -10 9 -10 8 0 17 -6 19 -12 4 -8 6 -7 6 3 1 19
-25 33 -34 19z"/>
<path d="M6340 6740 c-8 -5 -11 -12 -7 -16 4 -4 13 -2 19 4 15 15 7 24 -12 12z"/>
<path d="M6590 6565 c0 -9 6 -12 15 -9 8 4 15 7 15 9 0 2 -7 5 -15 9 -9 3 -15
0 -15 -9z"/>
<path d="M6595 6510 c-3 -5 -1 -10 4 -10 6 0 11 5 11 10 0 6 -2 10 -4 10 -3 0
-8 -4 -11 -10z"/>
<path d="M6798 6353 c-16 -2 -28 -8 -28 -14 0 -13 49 -7 54 8 3 7 4 12 3 12
-1 -1 -14 -4 -29 -6z"/>
<path d="M6760 6309 c0 -5 5 -7 10 -4 6 3 10 8 10 11 0 2 -4 4 -10 4 -5 0 -10
-5 -10 -11z"/>
<path d="M7045 6070 c-3 -5 1 -10 9 -10 9 0 16 5 16 10 0 6 -4 10 -9 10 -6 0
-13 -4 -16 -10z"/>
<path d="M7045 5912 c-2 -3 -2 -9 1 -13 7 -12 64 -12 64 0 0 9 -57 21 -65 13z"/>
<path d="M6850 5885 c-10 -12 -10 -15 1 -15 26 0 59 12 59 21 0 15 -47 10 -60
-6z"/>
<path d="M7110 5869 c0 -5 5 -7 10 -4 6 3 10 8 10 11 0 2 -4 4 -10 4 -5 0 -10
-5 -10 -11z"/>
<path d="M6370 5760 c0 -5 6 -10 14 -10 8 0 18 5 21 10 3 6 -3 10 -14 10 -12
0 -21 -4 -21 -10z"/>
<path d="M6255 5680 c-3 -5 1 -10 10 -10 9 0 13 5 10 10 -3 6 -8 10 -10 10 -2
0 -7 -4 -10 -10z"/>
<path d="M6210 5642 c0 -14 11 -21 26 -15 21 8 17 23 -6 23 -11 0 -20 -4 -20
-8z"/>
<path d="M5756 5613 c-3 -3 -3 -10 0 -14 7 -12 34 -11 34 0 0 11 -26 22 -34
14z"/>
<path d="M5565 5581 c14 -14 49 -18 55 -6 3 6 -11 11 -30 13 -24 2 -32 0 -25
-7z"/>
<path d="M5411 5453 c7 -10 14 -19 15 -21 0 -1 9 7 19 18 18 20 17 20 -15 20
-29 0 -31 -2 -19 -17z"/>
<path d="M4128 7103 c7 -3 16 -2 19 1 4 3 -2 6 -13 5 -11 0 -14 -3 -6 -6z"/>
<path d="M8020 5650 c0 -5 5 -10 10 -10 6 0 10 5 10 10 0 6 -4 10 -10 10 -5 0
-10 -4 -10 -10z"/>
<path d="M8105 5540 c-3 -5 -1 -10 4 -10 6 0 11 5 11 10 0 6 -2 10 -4 10 -3 0
-8 -4 -11 -10z"/>
<path d="M8076 5531 c-4 -7 -5 -15 -2 -18 9 -9 19 4 14 18 -4 11 -6 11 -12 0z"/>
<path d="M8170 5304 c0 -8 5 -12 10 -9 6 3 10 10 10 16 0 5 -4 9 -10 9 -5 0
-10 -7 -10 -16z"/>
<path d="M8114 5165 c24 -18 39 -20 34 -2 -3 6 -15 13 -29 15 -23 2 -23 2 -5
-13z"/>
<path d="M8197 4823 c-14 -17 -13 -21 14 -52 24 -29 29 -32 35 -17 4 9 2 28
-4 42 -10 20 -9 24 4 24 8 0 12 5 9 10 -10 16 -40 12 -58 -7z"/>
<path d="M6380 3220 c0 -16 7 -20 31 -20 l32 0 -26 20 c-14 11 -28 20 -31 20
-3 0 -6 -9 -6 -20z"/>
<path d="M6275 3140 c-3 -5 1 -10 10 -10 9 0 13 5 10 10 -3 6 -8 10 -10 10 -2
0 -7 -4 -10 -10z"/>
<path d="M6244 3098 c-18 -20 -18 -21 -1 -15 10 4 23 7 28 7 5 0 9 7 9 15 0
21 -14 19 -36 -7z"/>
<path d="M7290 2131 c0 -5 7 -11 14 -14 10 -4 13 -1 9 9 -6 15 -23 19 -23 5z"/>
<path d="M4260 6016 c0 -8 10 -13 25 -13 20 0 23 2 14 13 -6 8 -18 14 -25 14
-8 0 -14 -6 -14 -14z"/>
<path d="M4347 6016 c-4 -9 2 -13 19 -13 14 0 24 5 24 13 0 8 -9 14 -19 14
-10 0 -21 -6 -24 -14z"/>
<path d="M4260 5982 c-14 -2 -27 -7 -30 -11 -3 -3 -17 -14 -32 -24 -31 -19
-37 -37 -13 -37 8 0 15 7 15 15 0 10 10 15 34 15 44 0 66 9 66 25 0 18 -10 22
-40 17z"/>
<path d="M3830 5844 c0 -8 5 -12 10 -9 6 4 8 11 5 16 -9 14 -15 11 -15 -7z"/>
<path d="M3645 5819 c-12 -19 5 -23 22 -6 16 16 16 17 1 17 -9 0 -20 -5 -23
-11z"/>
<path d="M3475 5804 c-9 -9 -14 -18 -12 -20 7 -7 37 8 37 18 0 5 4 7 9 3 5 -3
12 -1 16 5 10 16 -32 11 -50 -6z"/>
<path d="M3432 5757 c-16 -19 -33 -67 -23 -67 13 0 45 39 38 47 -4 3 -2 12 4
20 7 8 8 13 1 13 -5 0 -14 -6 -20 -13z"/>
<path d="M1146 5284 c-6 -16 13 -27 40 -22 15 3 14 6 -8 20 -23 15 -27 15 -32
2z"/>
<path d="M1520 4542 c0 -4 7 -17 15 -29 11 -16 21 -20 35 -15 29 11 23 26 -15
39 -19 7 -35 9 -35 5z"/>
<path d="M500 2674 c0 -8 5 -12 10 -9 6 3 10 10 10 16 0 5 -4 9 -10 9 -5 0
-10 -7 -10 -16z"/>
<path d="M529 2563 c16 -35 40 -50 51 -33 4 6 11 10 16 9 22 -4 21 3 -3 27
-14 14 -38 27 -52 28 -27 2 -27 2 -12 -31z"/>
<path d="M3365 5050 c-3 -5 -15 -10 -26 -10 -10 0 -19 -4 -19 -10 0 -15 27
-12 44 6 9 8 16 17 16 20 0 7 -9 4 -15 -6z"/>
<path d="M3305 4990 c-18 -20 -17 -20 20 -20 30 0 36 3 31 16 -3 9 -6 18 -6
20 0 12 -29 1 -45 -16z"/>
<path d="M3025 4950 c4 -6 11 -8 16 -5 14 9 11 15 -7 15 -8 0 -12 -5 -9 -10z"/>
<path d="M3135 4880 c-3 -5 1 -10 9 -10 9 0 16 5 16 10 0 6 -4 10 -9 10 -6 0
-13 -4 -16 -10z"/>
<path d="M3378 3373 c7 -3 16 -2 19 1 4 3 -2 6 -13 5 -11 0 -14 -3 -6 -6z"/>
<path d="M3365 3310 c-8 -13 15 -24 27 -12 6 6 4 11 -6 15 -8 3 -18 2 -21 -3z"/>
<path d="M3368 3263 c6 -2 18 -2 25 0 6 3 1 5 -13 5 -14 0 -19 -2 -12 -5z"/>
<path d="M3365 3240 c-3 -5 1 -10 10 -10 9 0 13 5 10 10 -3 6 -8 10 -10 10 -2
0 -7 -4 -10 -10z"/>
<path d="M5378 3373 c7 -3 16 -2 19 1 4 3 -2 6 -13 5 -11 0 -14 -3 -6 -6z"/>
<path d="M5373 3250 c-1 -11 3 -20 9 -20 6 0 8 3 5 7 -4 3 -2 12 4 20 9 10 8
13 -3 13 -7 0 -14 -9 -15 -20z"/>
<path d="M4700 2782 c-14 -2 -32 -5 -40 -8 -28 -10 20 -35 55 -28 18 3 42 -1
60 -10 34 -18 69 -21 60 -6 -3 6 -15 10 -26 10 -11 0 -17 5 -14 10 4 6 -8 10
-29 10 -19 0 -36 6 -38 13 -2 6 -14 11 -28 9z"/>
<path d="M4250 2569 c0 -5 11 -9 25 -9 14 0 25 2 25 4 0 2 -11 6 -25 8 -14 3
-25 1 -25 -3z"/>
<path d="M3750 2511 c0 -6 5 -13 10 -16 6 -3 10 1 10 9 0 9 -4 16 -10 16 -5 0
-10 -4 -10 -9z"/>
<path d="M3710 2490 c0 -5 5 -10 10 -10 6 0 10 5 10 10 0 6 -4 10 -10 10 -5 0
-10 -4 -10 -10z"/>
<path d="M3338 2433 c7 -3 16 -2 19 1 4 3 -2 6 -13 5 -11 0 -14 -3 -6 -6z"/>
<path d="M5718 2433 c7 -3 16 -2 19 1 4 3 -2 6 -13 5 -11 0 -14 -3 -6 -6z"/>
<path d="M5530 2302 c0 -4 -12 -8 -27 -7 -14 0 -28 -5 -30 -11 -2 -6 21 -10
64 -11 45 0 59 3 43 8 -14 4 -20 8 -15 8 6 1 3 6 -5 11 -18 12 -30 13 -30 2z"/>
<path d="M2884 2279 c-4 -7 2 -20 16 -31 12 -10 18 -18 14 -18 -5 0 -1 -5 9
-11 11 -6 23 -7 30 -2 7 5 25 9 40 8 19 -1 32 6 39 20 10 17 9 18 -4 7 -13
-10 -17 -10 -22 4 -3 9 -13 14 -21 10 -8 -3 -17 -1 -20 3 -3 5 -14 7 -25 4
-11 -3 -26 0 -34 6 -11 9 -16 9 -22 0z"/>
<path d="M3280 2245 c7 -8 17 -15 22 -15 5 0 3 7 -6 15 -8 8 -18 15 -22 15 -3
0 -1 -7 6 -15z"/>
<path d="M5350 2216 c-8 -10 -7 -15 2 -18 16 -6 38 1 38 12 0 15 -28 19 -40 6z"/>
<path d="M2385 2190 c3 -5 11 -10 16 -10 6 0 7 5 4 10 -3 6 -11 10 -16 10 -6
0 -7 -4 -4 -10z"/>
<path d="M3270 2196 c0 -9 30 -14 35 -6 4 6 -3 10 -14 10 -12 0 -21 -2 -21 -4z"/>
<path d="M2316 2181 c-3 -4 -1 -13 4 -21 7 -11 11 -12 24 0 21 16 33 5 16 -15
-10 -12 -10 -15 2 -15 10 0 15 9 14 26 -1 21 -7 27 -28 30 -15 1 -30 -1 -32
-5z"/>
<path d="M720 2154 c0 -8 5 -12 10 -9 6 3 10 10 10 16 0 5 -4 9 -10 9 -5 0
-10 -7 -10 -16z"/>
<path d="M3305 2160 c-10 -16 9 -33 30 -28 16 3 15 5 -3 21 -14 13 -22 15 -27
7z"/>
<path d="M5366 2134 c7 -3 10 -14 7 -24 -6 -21 11 -28 22 -10 8 13 -13 40 -29
39 -8 0 -8 -2 0 -5z"/>
<path d="M615 2110 c-3 -5 1 -10 10 -10 9 0 13 5 10 10 -3 6 -8 10 -10 10 -2
0 -7 -4 -10 -10z"/>
<path d="M690 2090 c0 -11 5 -20 10 -20 6 0 10 5 10 10 0 6 9 10 20 10 11 0
20 5 20 10 0 6 -13 10 -30 10 -23 0 -30 -4 -30 -20z"/>
<path d="M5230 2070 c-8 -5 -7 -9 5 -14 26 -10 42 -7 48 8 6 15 -32 19 -53 6z"/>
<path d="M3798 2048 c5 -5 16 -8 23 -6 8 3 3 7 -10 11 -17 4 -21 3 -13 -5z"/>
<path d="M3486 2043 c-8 -8 6 -33 15 -27 5 3 12 -2 15 -10 7 -18 30 -21 39 -5
4 6 0 9 -11 7 -13 -2 -18 2 -16 13 2 16 -31 33 -42 22z"/>
<path d="M4847 2034 c-8 -14 8 -37 22 -33 8 3 8 10 -2 23 -8 11 -17 15 -20 10z"/>
<path d="M5045 2034 c-6 -1 -36 -5 -68 -9 -86 -10 -62 -29 30 -23 76 5 115 21
71 30 -13 2 -28 3 -33 2z"/>
<path d="M3614 2005 c22 -17 36 -19 36 -6 0 10 -24 21 -43 21 -7 0 -3 -7 7
-15z"/>
<path d="M1750 1981 c0 -24 83 -35 120 -16 l25 13 -28 11 c-37 14 -36 15 -29
-11 3 -14 2 -19 -6 -14 -7 4 -12 14 -12 22 0 8 -4 14 -10 14 -5 0 -10 -4 -10
-10 0 -6 -9 -6 -25 0 -21 8 -25 7 -25 -9z"/>
<path d="M3845 1990 c-3 -5 -1 -10 4 -10 6 0 11 5 11 10 0 6 -2 10 -4 10 -3 0
-8 -4 -11 -10z"/>
<path d="M1700 1981 c0 -11 26 -22 34 -14 12 12 5 23 -14 23 -11 0 -20 -4 -20
-9z"/>
<path d="M1532 1968 c6 -18 28 -21 28 -4 0 9 -7 16 -16 16 -9 0 -14 -5 -12
-12z"/>
<path d="M4060 1945 c0 -8 -9 -19 -21 -25 -11 -7 -18 -17 -16 -25 3 -7 1 -17
-5 -23 -12 -12 67 -22 85 -10 18 12 -13 28 -43 22 -21 -4 -22 -3 -5 4 20 9 32
72 14 72 -5 0 -9 -7 -9 -15z"/>
<path d="M1620 1930 c0 -5 5 -10 11 -10 5 0 7 5 4 10 -3 6 -8 10 -11 10 -2 0
-4 -4 -4 -10z"/>
<path d="M4430 1931 c0 -4 11 -6 25 -3 14 2 25 6 25 8 0 2 -11 4 -25 4 -14 0
-25 -4 -25 -9z"/>
<path d="M4532 1921 c2 -7 7 -12 11 -12 12 1 9 15 -3 20 -7 2 -11 -2 -8 -8z"/>
<path d="M4150 1851 c0 -6 4 -13 10 -16 6 -3 7 1 4 9 -7 18 -14 21 -14 7z"/>
<path d="M1280 1827 l-25 -11 28 -4 c32 -4 46 4 31 17 -5 5 -20 4 -34 -2z"/>
<path d="M6946 1711 c-4 -5 -2 -12 3 -15 5 -4 12 -2 15 3 4 5 2 12 -3 15 -5 4
-12 2 -15 -3z"/>
<path d="M6800 1640 c0 -5 5 -10 11 -10 5 0 7 5 4 10 -3 6 -8 10 -11 10 -2 0
-4 -4 -4 -10z"/>
<path d="M6896 1632 c-3 -6 -1 -14 5 -17 15 -10 25 3 12 16 -7 7 -13 7 -17 1z"/>
<path d="M6778 1613 c7 -3 16 -2 19 1 4 3 -2 6 -13 5 -11 0 -14 -3 -6 -6z"/>
<path d="M6716 1523 c-14 -35 14 -37 64 -5 8 5 -24 22 -41 22 -9 0 -20 -8 -23
-17z"/>
<path d="M2050 1284 c0 -8 5 -12 10 -9 6 4 8 11 5 16 -9 14 -15 11 -15 -7z"/>
<path d="M6468 1283 c7 -3 16 -2 19 1 4 3 -2 6 -13 5 -11 0 -14 -3 -6 -6z"/>
<path d="M6401 1243 c13 -15 69 -18 69 -3 0 10 -33 19 -62 18 -14 -1 -15 -4
-7 -15z"/>
<path d="M6535 1230 c3 -5 14 -10 23 -10 15 0 15 2 2 10 -20 13 -33 13 -25 0z"/>
<path d="M6291 1114 c14 -17 42 -18 37 -1 -3 6 -14 13 -26 13 -18 1 -20 -2
-11 -12z"/>
<path d="M6155 1080 c-4 -6 -3 -16 3 -22 6 -6 12 -6 17 2 4 6 3 16 -3 22 -6 6
-12 6 -17 -2z"/>
<path d="M2520 1031 c0 -5 17 -16 39 -24 30 -12 38 -21 37 -39 -1 -14 5 -23
14 -23 11 0 14 9 12 35 -5 43 -3 41 -41 42 -18 1 -34 5 -37 10 -7 11 -24 10
-24 -1z"/>
<path d="M6045 950 c-3 -5 -1 -10 4 -10 6 0 11 5 11 10 0 6 -2 10 -4 10 -3 0
-8 -4 -11 -10z"/>
<path d="M2780 940 c0 -12 28 -25 36 -17 3 3 -4 10 -15 17 -15 7 -21 7 -21 0z"/>
<path d="M2950 870 c0 -12 28 -21 35 -11 2 5 -4 11 -15 14 -11 3 -20 2 -20 -3z"/>
<path d="M2770 860 c-7 -4 -9 -13 -6 -19 4 -6 11 -9 16 -6 5 3 11 1 15 -5 7
-11 25 -4 25 8 0 14 -37 30 -50 22z"/>
<path d="M2847 856 c-3 -8 -3 -17 0 -20 7 -7 33 13 33 25 0 15 -27 10 -33 -5z"/>
<path d="M2852 794 c9 -9 21 -13 27 -9 16 10 3 25 -22 25 -20 0 -20 -1 -5 -16z"/>
<path d="M3025 770 c3 -6 1 -10 -6 -10 -8 0 -8 -4 1 -15 7 -8 21 -15 31 -15
17 0 17 3 7 20 -7 11 -19 22 -26 25 -7 2 -10 0 -7 -5z"/>
<path d="M5455 760 c-3 -5 -1 -10 4 -10 6 0 11 5 11 10 0 6 -2 10 -4 10 -3 0
-8 -4 -11 -10z"/>
<path d="M3095 730 c3 -5 18 -10 33 -10 21 0 24 2 12 10 -20 13 -53 13 -45 0z"/>
<path d="M3315 720 c9 -14 45 -19 45 -5 0 7 -11 13 -25 13 -13 0 -23 -4 -20
-8z"/>
<path d="M3174 705 c-5 -11 -10 -12 -26 -4 -20 11 -56 4 -44 -8 3 -4 25 -9 49
-13 25 -3 41 -11 40 -18 -3 -14 33 -16 42 -2 3 5 -6 17 -21 27 -24 15 -25 18
-8 24 17 7 16 8 -4 8 -12 1 -25 -6 -28 -14z"/>
<path d="M3060 690 c6 -11 13 -20 15 -20 3 0 5 9 5 20 0 11 -7 20 -15 20 -13
0 -14 -4 -5 -20z"/>
<path d="M5495 690 c-3 -5 -2 -10 4 -10 5 0 12 -8 14 -17 3 -11 5 -7 6 10 1
27 -12 36 -24 17z"/>
<path d="M3334 665 c-17 -13 -17 -14 -2 -15 9 0 20 5 23 11 11 17 0 20 -21 4z"/>
<path d="M4860 590 c0 -5 5 -10 11 -10 5 0 7 5 4 10 -3 6 -8 10 -11 10 -2 0
-4 -4 -4 -10z"/>
<path d="M4245 570 c4 -6 11 -8 16 -5 14 9 11 15 -7 15 -8 0 -12 -5 -9 -10z"/>
<path d="M4401 564 c-20 -23 -2 -34 42 -27 39 6 53 33 17 33 -11 0 -20 -5 -20
-11 0 -5 -5 -7 -10 -4 -6 4 -8 11 -5 16 10 15 -9 10 -24 -7z"/>
<path d="M3770 535 c0 -30 26 -34 46 -7 20 26 17 32 -16 32 -25 0 -30 -4 -30
-25z"/>
<path d="M3840 549 c0 -5 5 -7 10 -4 6 3 10 8 10 11 0 2 -4 4 -10 4 -5 0 -10
-5 -10 -11z"/>
<path d="M4619 555 c-7 -26 3 -44 22 -45 15 0 16 39 2 44 -18 7 -23 7 -24 1z"/>
<path d="M3890 535 c7 -9 15 -13 17 -11 7 7 -7 26 -19 26 -6 0 -6 -6 2 -15z"/>
<path d="M4875 530 c-3 -5 -1 -10 4 -10 6 0 11 5 11 10 0 6 -2 10 -4 10 -3 0
-8 -4 -11 -10z"/>
<path d="M3830 522 c0 -5 9 -17 21 -28 17 -16 22 -16 29 -4 6 8 8 20 7 25 -4
13 -57 19 -57 7z"/>
<path d="M3920 519 c0 -5 5 -7 10 -4 6 3 10 8 10 11 0 2 -4 4 -10 4 -5 0 -10
-5 -10 -11z"/>
<path d="M4183 503 c-15 -3 -23 -12 -23 -24 0 -23 13 -24 34 -4 13 14 17 13
34 -6 11 -11 23 -16 26 -11 3 6 -1 12 -9 16 -8 3 -12 12 -9 21 6 15 -5 17 -53
8z"/>
<path d="M4104 485 c-9 -21 3 -34 27 -28 12 4 18 11 15 20 -3 8 -6 17 -6 19 0
11 -31 2 -36 -11z"/>
<path d="M6541 4633 c47 -51 70 -123 71 -215 1 -138 -57 -219 -215 -298 -44
-22 -86 -40 -93 -40 -33 0 -10 -18 31 -23 54 -8 132 6 183 32 50 25 118 101
145 159 30 67 30 199 1 263 -26 56 -86 124 -128 146 l-31 16 36 -40z"/>
<path d="M2926 3195 c4 -8 8 -15 10 -15 2 0 4 7 4 15 0 8 -4 15 -10 15 -5 0
-7 -7 -4 -15z"/>
<path d="M2944 3109 c-3 -6 -1 -16 5 -22 8 -8 11 -5 11 11 0 24 -5 28 -16 11z"/>
<path d="M4190 770 c0 -5 5 -10 10 -10 6 0 10 5 10 10 0 6 -4 10 -10 10 -5 0
-10 -4 -10 -10z"/>
</g>
</svg>
